<svg width="100" height="100" viewBox="0 0 100 100" fill="none" xmlns="http://www.w3.org/2000/svg"> <style> @media (prefers-color-scheme: light) { .path { fill: black } } </style> <g clip-path="url(#clip0_808_3879)"> <path d="M24.8028 29.7489C34.3598 21.5074 40.3975 15.0736 42.9156 10.4473C43.3708 9.58952 43.6438 8.96146 43.7348 8.56317C43.7955 8.44061 43.8714 8.19553 43.9623 7.82788C44.0837 7.30704 44.1292 6.89344 44.0989 6.58706C44.0685 6.25005 44.0534 6.08155 44.0534 6.08155C44.0534 6.05091 44.0231 5.959 43.9623 5.80582C43.9927 5.46881 43.7804 5.11648 43.3252 4.74883C42.9005 4.38118 42.2481 4.19736 41.3683 4.19736C40.2154 4.19736 39.2293 4.47309 38.4102 5.02456C38.3495 5.02456 38.1219 5.16243 37.7276 5.43817C36.2409 6.44919 34.8149 7.99638 33.4496 10.0797C29.7481 15.4718 26.8659 22.0283 24.8028 29.7489ZM21.3895 58.8849C22.2694 58.8849 23.1645 58.6857 24.0747 58.2874C26.5018 57.3683 28.7924 55.2544 30.9466 51.9455C32.5546 49.4333 33.6165 46.9669 34.1322 44.5466C34.4357 43.1373 34.5418 41.8046 34.4509 40.5485C34.5115 40.1502 34.4357 39.6447 34.2233 39.0319C33.7985 37.1937 32.9642 36.2746 31.7203 36.2746C30.1729 36.2746 28.0795 37.6226 25.4399 40.3187C23.3161 42.5858 21.7688 45.0521 20.798 47.7176L18.6135 58.1036C19.554 58.6245 20.4794 58.8849 21.3895 58.8849ZM22.8458 63.5724C21.4503 63.5724 20.1153 63.4345 18.841 63.1588C17.5971 63.0055 16.5048 62.6379 15.5643 62.0558C14.9272 62.0558 14.4266 61.9639 14.0625 61.7801C13.6681 61.5656 13.5012 61.3052 13.5619 60.9989L19.5691 34.712C20.5704 30.2697 21.9205 25.8273 23.6195 21.3849C25.3185 16.9118 27.6244 12.592 30.537 8.4253C34.2688 3.27824 38.1523 0.704712 42.1875 0.704712C43.7955 0.765986 45.0394 1.21023 45.9193 2.03743C47.3452 3.35484 47.8155 5.14711 47.3301 7.41427C47.1784 8.08829 46.966 8.8389 46.693 9.66611C43.9017 15.7629 36.2561 23.8665 23.7561 33.9767L22.6183 39.3077C23.1341 38.695 23.665 38.0975 24.2112 37.5153C24.6056 37.1784 24.8635 36.9179 24.9848 36.7342C25.6523 36.1826 26.0315 35.8609 26.1225 35.7691C28.3981 33.8696 30.537 32.9198 32.5394 32.9198C33.753 32.9198 34.7694 33.2568 35.5885 33.9308C36.6505 34.85 37.3635 36.0448 37.7276 37.5153C38.3647 39.4455 38.3495 41.9884 37.682 45.1441C36.8021 49.4026 34.7543 53.4008 31.5382 57.1385C31.1742 57.5675 30.8101 57.9657 30.446 58.3334C32.1753 57.7512 33.9048 56.9394 35.6341 55.8977C41.0952 52.4357 45.2973 47.4571 48.2403 40.962C48.301 40.8395 48.483 40.7783 48.7864 40.7783C49.0898 40.7783 49.4387 40.8242 49.8331 40.9161C50.2276 40.9774 50.531 41.0846 50.7433 41.2378C50.986 41.3603 51.0922 41.4829 51.0619 41.6054C49.727 44.945 47.8914 48.1312 45.5552 51.1643C43.219 54.1667 40.4429 56.7555 37.227 58.9308C33.9503 61.0754 30.4763 62.5001 26.8052 63.2048C25.4703 63.4499 24.1505 63.5724 22.8458 63.5724ZM10.9223 95.2819C12.8338 95.2819 14.9575 94.8377 17.2937 93.9492C21.1468 92.4173 24.6662 90.1349 27.8519 87.1018C33.1917 82.1385 37.3938 75.6281 40.4581 67.5705C34.6025 68.0607 29.1717 69.0411 24.1656 70.5117C14.1535 73.5142 7.79732 78.4774 5.09708 85.4014C5.0364 85.6771 4.96056 85.9069 4.86953 86.0907L4.50545 87.4695L4.41444 88.1128C3.929 90.8702 4.74818 92.8769 6.87195 94.133C7.08433 94.3168 7.26637 94.4088 7.41807 94.4088C7.5091 94.5006 7.7063 94.6079 8.0097 94.7304C8.28276 94.853 8.44963 94.9143 8.5103 94.9143C8.96541 95.1594 9.76941 95.2819 10.9223 95.2819ZM10.9223 99.1883C9.64805 99.1883 8.32827 99.0501 6.96298 98.7746C6.96298 98.7442 6.93264 98.7285 6.87195 98.7285L5.1426 97.9933C3.86832 97.4418 2.77609 96.5227 1.8659 95.2359C0.500601 93.3364 0.0758433 91.0234 0.59162 88.2966C0.955698 86.6116 1.18325 85.7231 1.27427 85.6312L1.31978 85.3554C2.22997 82.8126 3.56493 80.4535 5.32463 78.2783C12.0297 70.0061 24.1808 65.2574 41.7779 64.0319C42.9309 60.6312 43.9776 56.9394 44.918 52.9565L50.9709 27.8187C51.1225 27.2365 51.4412 26.7617 51.9266 26.3941C52.4423 26.0264 53.0188 25.8426 53.6559 25.8426C54.2627 25.9039 54.7179 26.1183 55.0213 26.4859C55.3549 26.8536 55.4763 27.2979 55.3853 27.8187L49.1505 53.0944C48.2099 56.9241 47.1632 60.5087 46.0103 63.8481L51.9266 63.7103C62.9399 63.7103 74.4083 64.8745 86.3319 67.2029C89.3355 67.7544 92.2785 68.4437 95.1608 69.2708C97.1932 69.8224 98.3767 70.2512 98.7107 70.5577C99.1048 70.9865 99.2563 71.4155 99.166 71.8444C99.1349 71.9976 99.0748 72.1661 98.9835 72.35C98.5893 72.932 97.9981 73.2231 97.2087 73.2231C96.966 73.2231 96.7082 73.1924 96.435 73.1312C95.1305 72.6716 93.2797 72.1355 90.8829 71.5227C77.8975 68.6122 64.7451 67.1416 51.426 67.1109C48.6044 67.1722 46.3744 67.2335 44.736 67.2948C43.1583 71.4308 41.4138 75.1532 39.5024 78.462C37.0448 82.5981 33.9957 86.3665 30.3549 89.7672C26.5018 93.3211 22.3756 95.9406 17.9763 97.6256C15.2457 98.5452 12.8945 99.0657 10.9223 99.1883ZM54.9302 22.304C54.7179 22.304 54.4448 22.304 54.1111 22.304C53.7773 22.2734 53.5043 22.2427 53.2918 22.212C53.0795 22.1814 52.9733 22.1508 52.9733 22.1202L54.4296 12.7452C54.4296 12.7146 54.6419 12.6992 55.0668 12.6992C56.2804 12.7299 57.5243 12.8217 58.7985 12.975L55.2943 22.258C55.2943 22.2887 55.1729 22.304 54.9302 22.304ZM64.4873 28.0944C65.4884 25.4597 66.0497 23.8511 66.1711 23.2691C66.2621 22.7789 66.2318 22.5185 66.0801 22.4878C65.9587 22.4265 65.807 22.3959 65.625 22.3959C65.1092 22.3959 64.5328 22.7942 63.8956 23.5907C63.6225 23.9891 63.4406 24.4179 63.3495 24.8775C63.1068 26.0417 63.2888 26.9455 63.8956 27.5889C63.926 27.7114 63.9866 27.7727 64.0777 27.7727C64.1687 27.8953 64.3052 28.0025 64.4873 28.0944ZM68.6742 60.0338C67.9763 60.0338 67.3544 59.8959 66.8082 59.6202C66.2924 59.3444 65.9891 59.1606 65.898 59.0687C65.807 58.9767 65.7312 58.9155 65.6705 58.8849C65.2154 58.2108 64.9575 57.3836 64.8969 56.4032C64.8361 55.3922 64.9879 54.0289 65.3519 52.3132C66.5351 46.7372 68.9472 40.2267 72.588 32.7819C71.2834 33.1803 70.0546 33.3794 68.9017 33.3794C67.8398 33.3487 66.8386 33.2414 65.898 33.0577C63.4709 38.4804 62.0146 41.1918 61.5291 41.1918C61.1953 41.1918 60.8313 41.1305 60.4369 41.008C60.0425 40.8854 59.739 40.7323 59.5267 40.5485C59.3447 40.3647 59.2688 40.2114 59.2991 40.0889C60.5127 37.6686 61.7112 35.0338 62.8944 32.1845C62.1056 31.8475 61.5291 31.5104 61.165 31.1735C59.5267 29.3965 58.9654 27.3438 59.4812 25.0154C59.6329 24.2495 59.997 23.3609 60.5734 22.35C61.6049 20.8487 62.7276 19.8224 63.9412 19.2708C64.6693 18.842 65.4429 18.6275 66.2621 18.6275C67.8398 18.6275 68.9169 19.2555 69.4933 20.5117C69.8574 21.247 69.9332 22.1661 69.7209 23.2691C69.5085 24.1882 68.8107 26.103 67.6274 29.0136C68.2039 29.0748 68.8107 29.1207 69.4478 29.1514C70.4186 29.1514 71.2227 29.0289 71.8598 28.7838C73.0734 28.4161 74.8028 27.4816 77.048 25.9804L77.1845 25.9345C77.5182 25.9345 77.9581 26.4401 78.5043 27.451C78.7166 27.8187 78.9138 28.1098 79.0959 28.3242C79.1262 28.3242 79.1414 28.3395 79.1414 28.3702C79.3841 28.554 79.4903 28.7225 79.46 28.8756L79.1414 29.3353C79.1111 29.3965 79.0655 29.4578 79.0048 29.5191C78.2464 30.6526 77.2451 32.399 76.0012 34.758C73.8471 39.1085 72.0115 43.4437 70.4946 47.7636C69.8271 49.6937 69.3264 51.4094 68.9927 52.9106C68.6286 54.6875 68.5528 55.7599 68.7651 56.1275C68.8865 56.1275 68.932 56.1735 68.9017 56.2653L69.4478 56.3573C70.2063 56.3573 71.1772 55.8211 72.3604 54.7489C74.5448 52.7267 76.699 49.9541 78.8228 46.4308C80.2184 44.2555 81.3714 42.1875 82.2815 40.2267C82.3726 40.043 82.6912 39.951 83.2373 39.951C83.4496 39.951 83.6772 39.9816 83.9199 40.043C84.7998 40.2267 85.1942 40.5025 85.1031 40.8702C85.0121 41.3297 84.466 42.494 83.4649 44.3628C79.7937 51.195 76.2287 55.913 72.77 58.5172C71.2834 59.5283 69.9181 60.0338 68.6742 60.0338Z" fill="white" class="path" /> </g> <defs> <clipPath id="clip0_808_3879"> <rect width="100" height="100" fill="white" /> </clipPath> </defs> </svg>